REM DIRINDEX 1\2\4,1\2\5,1\2\6,1\3\7,1\3\8,1\3\9,1\3\10
REM DIRNAME folder01,folder02,folder03,folder04,folder05,folder06,folder07,folder08,folder09,folder10
TITLE ""
FILE "b_171.mp3" MP3
  TRACK 01 AUDIO
    TITLE "0:"
    INDEX 01 00:00:00
  TRACK 02 AUDIO
    TITLE "7:cjc057_09316"
    INDEX 01 00:00:15
  TRACK 03 AUDIO
    TITLE "0:"
    INDEX 01 00:01:22
  TRACK 04 AUDIO
    TITLE "8:cjc057_09317"
    INDEX 01 00:01:58
  TRACK 05 AUDIO
    TITLE "0:"
    INDEX 01 00:04:42
  TRACK 06 AUDIO
    TITLE "9:cjc057_09318"
    INDEX 01 00:05:12
  TRACK 07 AUDIO
    TITLE "0:"
    INDEX 01 00:07:64
  TRACK 08 AUDIO
    TITLE "7:cjc057_09319"
    INDEX 01 00:08:73
  TRACK 09 AUDIO
    TITLE "0:"
    INDEX 01 00:10:12
  TRACK 10 AUDIO
    TITLE "8:cjc057_09320"
    INDEX 01 00:10:49
  TRACK 11 AUDIO
    TITLE "0:"
    INDEX 01 00:12:54
  TRACK 12 AUDIO
    TITLE "9:cjc057_09321"
    INDEX 01 00:13:28
  TRACK 13 AUDIO
    TITLE "0:"
    INDEX 01 00:15:62
  TRACK 14 AUDIO
    TITLE "7:cjc057_09322"
    INDEX 01 00:17:00
  TRACK 15 AUDIO
    TITLE "0:"
    INDEX 01 00:18:13
  TRACK 16 AUDIO
    TITLE "8:cjc057_09323"
    INDEX 01 00:18:48
  TRACK 17 AUDIO
    TITLE "0:"
    INDEX 01 00:20:73
  TRACK 18 AUDIO
    TITLE "9:cjc057_09324"
    INDEX 01 00:21:47
  TRACK 19 AUDIO
    TITLE "0:"
    INDEX 01 00:24:14
  TRACK 20 AUDIO
    TITLE "7:cjc057_09325"
    INDEX 01 00:25:25
  TRACK 21 AUDIO
    TITLE "0:"
    INDEX 01 00:26:48
  TRACK 22 AUDIO
    TITLE "8:cjc057_09326"
    INDEX 01 00:27:10
  TRACK 23 AUDIO
    TITLE "0:"
    INDEX 01 00:28:51
  TRACK 24 AUDIO
    TITLE "9:cjc057_09327"
    INDEX 01 00:29:23
  TRACK 25 AUDIO
    TITLE "0:"
    INDEX 01 00:32:54
  TRACK 26 AUDIO
    TITLE "7:cjc057_09328"
    INDEX 01 00:33:64
  TRACK 27 AUDIO
    TITLE "0:"
    INDEX 01 00:35:10
  TRACK 28 AUDIO
    TITLE "8:cjc057_09329"
    INDEX 01 00:35:47
  TRACK 29 AUDIO
    TITLE "0:"
    INDEX 01 00:37:01
  TRACK 30 AUDIO
    TITLE "9:cjc057_09330"
    INDEX 01 00:37:46
  TRACK 31 AUDIO
    TITLE "0:"
    INDEX 01 00:40:72
  TRACK 32 AUDIO
    TITLE "7:cjc057_09331"
    INDEX 01 00:42:08
  TRACK 33 AUDIO
    TITLE "0:"
    INDEX 01 00:43:05
  TRACK 34 AUDIO
    TITLE "8:cjc057_09332"
    INDEX 01 00:43:39
  TRACK 35 AUDIO
    TITLE "0:"
    INDEX 01 00:45:51
  TRACK 36 AUDIO
    TITLE "9:cjc057_09333"
    INDEX 01 00:46:21
  TRACK 37 AUDIO
    TITLE "0:"
    INDEX 01 00:49:65
  TRACK 38 AUDIO
    TITLE "7:cjc057_09334"
    INDEX 01 00:51:03
  TRACK 39 AUDIO
    TITLE "0:"
    INDEX 01 00:52:12
  TRACK 40 AUDIO
    TITLE "8:cjc057_09335"
    INDEX 01 00:52:45
  TRACK 41 AUDIO
    TITLE "0:"
    INDEX 01 00:54:60
  TRACK 42 AUDIO
    TITLE "9:cjc057_09336"
    INDEX 01 00:55:32
  TRACK 43 AUDIO
    TITLE "0:"
    INDEX 01 00:58:24
  TRACK 44 AUDIO
    TITLE "7:cjc057_09337"
    INDEX 01 00:59:34
  TRACK 45 AUDIO
    TITLE "0:"
    INDEX 01 01:00:47
  TRACK 46 AUDIO
    TITLE "8:cjc057_09338"
    INDEX 01 01:01:09
  TRACK 47 AUDIO
    TITLE "0:"
    INDEX 01 01:03:20
  TRACK 48 AUDIO
    TITLE "9:cjc057_09339"
    INDEX 01 01:03:69
  TRACK 49 AUDIO
    TITLE "0:"
    INDEX 01 01:08:44
  TRACK 50 AUDIO
    TITLE "7:cjc057_09340"
    INDEX 01 01:09:54
  TRACK 51 AUDIO
    TITLE "0:"
    INDEX 01 01:11:31
  TRACK 52 AUDIO
    TITLE "8:cjc057_09341"
    INDEX 01 01:11:68
  TRACK 53 AUDIO
    TITLE "0:"
    INDEX 01 01:13:06
  TRACK 54 AUDIO
    TITLE "9:cjc057_09342"
    INDEX 01 01:13:51
  TRACK 55 AUDIO
    TITLE "0:"
    INDEX 01 01:18:62
  TRACK 56 AUDIO
    TITLE "7:cjc057_09343"
    INDEX 01 01:19:74
  TRACK 57 AUDIO
    TITLE "0:"
    INDEX 01 01:21:02
  TRACK 58 AUDIO
    TITLE "8:cjc057_09344"
    INDEX 01 01:21:37
  TRACK 59 AUDIO
    TITLE "0:"
    INDEX 01 01:23:67
  TRACK 60 AUDIO
    TITLE "9:cjc057_09345"
    INDEX 01 01:24:39
  TRACK 61 AUDIO
    TITLE "0:"
    INDEX 01 01:27:46
  TRACK 62 AUDIO
    TITLE "7:cjc057_09346"
    INDEX 01 01:28:57
  TRACK 63 AUDIO
    TITLE "0:"
    INDEX 01 01:29:70
  TRACK 64 AUDIO
    TITLE "8:cjc057_09347"
    INDEX 01 01:30:30
  TRACK 65 AUDIO
    TITLE "0:"
    INDEX 01 01:31:51
  TRACK 66 AUDIO
    TITLE "9:cjc057_09348"
    INDEX 01 01:32:21
  TRACK 67 AUDIO
    TITLE "0:"
    INDEX 01 01:35:06
  TRACK 68 AUDIO
    TITLE "7:cjc057_09349"
    INDEX 01 01:36:17
  TRACK 69 AUDIO
    TITLE "0:"
    INDEX 01 01:37:19
  TRACK 70 AUDIO
    TITLE "8:cjc057_09350"
    INDEX 01 01:37:54
  TRACK 71 AUDIO
    TITLE "0:"
    INDEX 01 01:38:67
  TRACK 72 AUDIO
    TITLE "9:cjc057_09351"
    INDEX 01 01:39:35
  TRACK 73 AUDIO
    TITLE "0:"
    INDEX 01 01:42:24
  TRACK 74 AUDIO
    TITLE "7:cjc057_09352"
    INDEX 01 01:43:37
  TRACK 75 AUDIO
    TITLE "0:"
    INDEX 01 01:44:56
  TRACK 76 AUDIO
    TITLE "8:cjc057_09353"
    INDEX 01 01:45:16
  TRACK 77 AUDIO
    TITLE "0:"
    INDEX 01 01:46:57
  TRACK 78 AUDIO
    TITLE "9:cjc057_09354"
    INDEX 01 01:47:31
  TRACK 79 AUDIO
    TITLE "0:"
    INDEX 01 01:50:33
  TRACK 80 AUDIO
    TITLE "7:cjc057_09355"
    INDEX 01 01:51:44
  TRACK 81 AUDIO
    TITLE "0:"
    INDEX 01 01:52:53
  TRACK 82 AUDIO
    TITLE "8:cjc057_09356"
    INDEX 01 01:53:14
  TRACK 83 AUDIO
    TITLE "0:"
    INDEX 01 01:54:58
  TRACK 84 AUDIO
    TITLE "9:cjc057_09357"
    INDEX 01 01:55:30
  TRACK 85 AUDIO
    TITLE "0:"
    INDEX 01 01:58:44
  TRACK 86 AUDIO
    TITLE "7:cjc057_09358"
    INDEX 01 01:59:53
  TRACK 87 AUDIO
    TITLE "0:"
    INDEX 01 02:00:72
  TRACK 88 AUDIO
    TITLE "8:cjc057_09359"
    INDEX 01 02:01:33
  TRACK 89 AUDIO
    TITLE "0:"
    INDEX 01 02:03:61
  TRACK 90 AUDIO
    TITLE "9:cjc057_09360"
    INDEX 01 02:04:31
  TRACK 91 AUDIO
    TITLE "0:"
    INDEX 01 02:07:29
  TRACK 92 AUDIO
    TITLE "7:cjc057_09361"
    INDEX 01 02:08:41
  TRACK 93 AUDIO
    TITLE "0:"
    INDEX 01 02:09:48
  TRACK 94 AUDIO
    TITLE "8:cjc057_09362"
    INDEX 01 02:10:08
  TRACK 95 AUDIO
    TITLE "0:"
    INDEX 01 02:13:26
  TRACK 96 AUDIO
    TITLE "9:cjc057_09363"
    INDEX 01 02:13:71
  TRACK 97 AUDIO
    TITLE "0:"
    INDEX 01 02:16:72
  TRACK 98 AUDIO
    TITLE "7:cjc057_09364"
    INDEX 01 02:18:06
  TRACK 99 AUDIO
    TITLE "0:"
    INDEX 01 02:19:15
  TRACK 100 AUDIO
    TITLE "8:cjc057_09365"
    INDEX 01 02:19:50
  TRACK 101 AUDIO
    TITLE "0:"
    INDEX 01 02:22:09
  TRACK 102 AUDIO
    TITLE "9:cjc057_09366"
    INDEX 01 02:22:58
  TRACK 103 AUDIO
    TITLE "0:"
    INDEX 01 02:25:14
  TRACK 104 AUDIO
    TITLE "7:cjc057_09367"
    INDEX 01 02:26:25
  TRACK 105 AUDIO
    TITLE "0:"
    INDEX 01 02:27:69
  TRACK 106 AUDIO
    TITLE "8:cjc057_09368"
    INDEX 01 02:28:30
  TRACK 107 AUDIO
    TITLE "0:"
    INDEX 01 02:31:16
  TRACK 108 AUDIO
    TITLE "9:cjc057_09369"
    INDEX 01 02:31:61
  TRACK 109 AUDIO
    TITLE "0:"
    INDEX 01 02:35:47
  TRACK 110 AUDIO
    TITLE "7:cjc057_09370"
    INDEX 01 02:36:59
  TRACK 111 AUDIO
    TITLE "0:"
    INDEX 01 02:37:60
  TRACK 112 AUDIO
    TITLE "8:cjc057_09371"
    INDEX 01 02:38:18
  TRACK 113 AUDIO
    TITLE "0:"
    INDEX 01 02:42:73
  TRACK 114 AUDIO
    TITLE "9:cjc057_09372"
    INDEX 01 02:43:49
  TRACK 115 AUDIO
    TITLE "0:"
    INDEX 01 02:47:03
